PathFileType	4	(X/Y/Z)	/Users/itak/Documents/Research/Walk-IL/dataset/trc/00331_00011.trc
DataRate	CameraRate	NumFrames	NumMarkers	Units	OrigDataRate	OrigDataStartFrame	OrigNumFrames
100.000000	100.000000	4	55	mm	100.000000	297	792
Frame#	Time	RPSI			LPSI			L3			STRN			T10			C7			CLAV			RBAK			LBAK			LSHO			LUPA			LAEL			LAOL			LWTS			LWPS			LFRA			LIFD			LHPS			RSHO			RUPA			RAEL			RAOL			RWTS			RWPS			RFRA			RIFD			RHTS			RHPS			RBHD			LFHD			RFHD			LBHD			LHIP			RHIP			RASI			LASI			LKNE			LTHI			LANK			LTIP			LTOE			LMT1			LMT5			LHEE			RKNE			RTHI			RANK			RTIP			RTOE			RMT1			RMT5			RHEE			LHTS			*53			*54			
		X1	Y1	Z1	X2	Y2	Z2	X3	Y3	Z3	X4	Y4	Z4	X5	Y5	Z5	X6	Y6	Z6	X7	Y7	Z7	X8	Y8	Z8	X9	Y9	Z9	X10	Y10	Z10	X11	Y11	Z11	X12	Y12	Z12	X13	Y13	Z13	X14	Y14	Z14	X15	Y15	Z15	X16	Y16	Z16	X17	Y17	Z17	X18	Y18	Z18	X19	Y19	Z19	X20	Y20	Z20	X21	Y21	Z21	X22	Y22	Z22	X23	Y23	Z23	X24	Y24	Z24	X25	Y25	Z25	X26	Y26	Z26	X27	Y27	Z27	X28	Y28	Z28	X29	Y29	Z29	X30	Y30	Z30	X31	Y31	Z31	X32	Y32	Z32	X33	Y33	Z33	X34	Y34	Z34	X35	Y35	Z35	X36	Y36	Z36	X37	Y37	Z37	X38	Y38	Z38	X39	Y39	Z39	X40	Y40	Z40	X41	Y41	Z41	X42	Y42	Z42	X43	Y43	Z43	X44	Y44	Z44	X45	Y45	Z45	X46	Y46	Z46	X47	Y47	Z47	X48	Y48	Z48	X49	Y49	Z49	X50	Y50	Z50	X51	Y51	Z51	X52	Y52	Z52	X53	Y53	Z53	X54	Y54	Z54	X55	Y55	Z55	

298	2.97	938.7505493164062	972.0097045898438	200.6673126220703	939.3244018554688	970.5028686523438	72.19206237792969	935.6803588867188	1022.814514160156	140.6080474853516	1155.526611328125	1209.3037109375	124.4852905273438	916.9740600585938	1143.370971679688	131.8134765625	955.0867919921875	1391.35302734375	112.9285507202148	1111.517944335938	1334.02978515625	119.0343322753906	907.1751098632812	1254.197509765625	185.3280944824219	947.1727905273438	1352.736938476562	10.67992877960205	1033.367431640625	1370.2587890625	-44.80492401123047	1022.456970214844	1248.775390625	-111.216438293457	1050.783813476562	1044.337280273438	-115.3867874145508	982.6604614257812	1031.100708007812	-66.01579284667969	1143.69384765625	803.383056640625	-51.59738540649414	1113.094970703125	791.4708862304688	-112.1301956176758	1069.626220703125	940.567138671875	-116.7316741943359	1149.236206054688	643.2814331054688	-43.30305480957031	1109.737060546875	720.4970092773438	-105.0447998046875	1016.302490234375	1379.64306640625	276.4998168945312	1010.404052734375	1314.449462890625	343.1600952148438	1026.208618164062	1045.494018554688	373.6712951660156	974.7848510742188	1038.985473632812	293.8620300292969	1133.396362304688	820.087890625	310.0786743164062	1104.7373046875	802.2664794921875	379.2413635253906	1054.035400390625	977.9755859375	377.8771667480469	1152.854248046875	646.5519409179688	314.4160766601562	1165.725463867188	718.8216552734375	321.1998901367188	1120.071166992188	718.5693969726562	371.8803100585938	964.3247680664062	1587.446044921875	182.9139556884766	1154.784301757812	1622.082153320312	104.6575012207031	1124.096801757812	1618.7724609375	201.1550903320312	983.4855346679688	1583.94775390625	40.10440444946289	1026.195434570312	907.6907958984375	-28.75264358520508	1016.379943847656	916.83251953125	309.3484802246094	1121.493286132812	944.29296875	268.0445556640625	1145.836181640625	936.4252319335938	27.84523010253906	1045.871459960938	453.5855102539062	-17.6090145111084	1056.537719726562	592.5153198242188	-26.80455589294434	950.252685546875	40.58473587036133	-8.729513168334961	995.7230834960938	239.791015625	-25.83696746826172	1154.8876953125	31.24635124206543	53.65658187866211	1084.593017578125	19.3515739440918	93.37314605712891	1075.356689453125	34.70838928222656	-18.85568046569824	915.3602905273438	34.48234558105469	57.58657836914062	1026.97607421875	453.2310791015625	293.0328063964844	1097.814208984375	709.7191162109375	303.0489196777344	960.715576171875	42.09712982177734	270.2832641601562	1027.681884765625	334.9255065917969	285.8451843261719	1153.603271484375	33.04216766357422	215.7371520996094	1097.21142578125	29.01061058044434	175.1494598388672	1061.728759765625	28.93847465515137	287.3068542480469	909.2576293945312	43.26498413085938	223.2646179199219	1158.462890625	724.6682739257812	-64.13104248046875	nan	nan	nan	nan	nan	nan	
299	2.98	938.7906494140625	972.0252075195312	200.6458740234375	939.435546875	970.4999389648438	72.18045806884766	935.7582397460938	1022.806884765625	140.6024932861328	1155.602661132812	1209.267944335938	124.5364532470703	917.021484375	1143.3818359375	131.8017883300781	955.211181640625	1391.361572265625	112.9398422241211	1111.619018554688	1334.01416015625	119.0885391235352	907.3009033203125	1254.205932617188	185.3190155029297	947.3345947265625	1352.754028320312	10.68761825561523	1033.481201171875	1370.24267578125	-44.77269744873047	1022.633483886719	1248.789672851562	-111.2005920410156	1050.912109375	1044.334350585938	-115.3526229858398	982.8514404296875	1031.100463867188	-65.96646118164062	1143.887817382812	803.427734375	-51.54856872558594	1113.267333984375	791.44677734375	-112.073112487793	1069.753784179688	940.5742797851562	-116.6963424682617	1149.353149414062	643.2080078125	-43.16788101196289	1109.901123046875	720.5304565429688	-104.9798278808594	1016.40869140625	1379.639892578125	276.5202331542969	1010.453796386719	1314.392944335938	343.1119995117188	1026.209716796875	1045.487426757812	373.6828002929688	974.8060302734375	1038.9794921875	293.8641662597656	1133.414916992188	820.0887451171875	310.1299743652344	1104.6875	802.201416015625	379.2929077148438	1054.041015625	977.9532470703125	377.8999938964844	1152.85107421875	646.5526123046875	314.4302978515625	1165.713134765625	718.7551879882812	321.3194274902344	1120.041015625	718.5184936523438	371.9176025390625	964.4013061523438	1587.414306640625	182.9173583984375	1154.869018554688	1622.115600585938	104.8132019042969	1124.077758789062	1618.738891601562	201.2314910888672	983.63818359375	1583.942993164062	40.11449813842773	1026.3046875	907.6869506835938	-28.69720268249512	1016.437072753906	916.8211059570312	309.3639526367188	1121.536376953125	944.289306640625	268.0776977539062	1145.937866210938	936.4308471679688	27.88974952697754	1045.926635742188	453.5800476074219	-17.59700202941895	1056.672241210938	592.5122680664062	-26.7651252746582	950.256591796875	40.58921813964844	-8.7298583984375	995.7716674804688	239.773681640625	-25.83037567138672	1154.888793945312	31.24497413635254	53.656494140625	1084.591430664062	19.35292434692383	93.37711334228516	1075.355834960938	34.70866775512695	-18.85439109802246	915.3634033203125	34.49028778076172	57.58468246459961	1027.02783203125	453.2142333984375	293.0505676269531	1097.932250976562	709.7138671875	303.0316467285156	960.7322387695312	42.09051513671875	270.2863159179688	1027.755981445312	334.88525390625	285.8425598144531	1153.6005859375	33.03329849243164	215.7382202148438	1097.2158203125	29.01435089111328	175.1502838134766	1061.729614257812	28.93789482116699	287.3020324707031	909.2619018554688	43.27178955078125	223.2608184814453	1158.695922851562	724.7728271484375	-64.11130523681641	nan	nan	nan	nan	nan	nan	
300	2.99	938.8323974609375	972.0429077148438	200.6246032714844	939.547119140625	970.4974975585938	72.16840362548828	935.8346557617188	1022.79638671875	140.5955810546875	1155.678588867188	1209.231567382812	124.5911560058594	917.0677490234375	1143.394653320312	131.7885894775391	955.321533203125	1391.367431640625	112.9486465454102	1111.717651367188	1334.000122070312	119.1435546875	907.4209594726562	1254.218505859375	185.3015747070312	947.4916381835938	1352.76953125	10.69178009033203	1033.609375	1370.229858398438	-44.74314117431641	1022.811401367188	1248.802001953125	-111.1840362548828	1051.040161132812	1044.327026367188	-115.3163757324219	983.0493774414062	1031.093139648438	-65.91660308837891	1144.10498046875	803.4773559570312	-51.47801208496094	1113.44921875	791.4195556640625	-112.007682800293	1069.884399414062	940.5791625976562	-116.6600723266602	1149.48193359375	643.1341552734375	-43.01567840576172	1110.085205078125	720.5675048828125	-104.9052124023438	1016.510314941406	1379.635986328125	276.5389404296875	1010.500732421875	1314.34326171875	343.06591796875	1026.209106445312	1045.480590820312	373.6932678222656	974.831787109375	1038.974609375	293.8675231933594	1133.432495117188	820.09130859375	310.1820373535156	1104.644165039062	802.147216796875	379.3455810546875	1054.04443359375	977.932861328125	377.916748046875	1152.849243164062	646.5555419921875	314.4479370117188	1165.697143554688	718.6910400390625	321.4395446777344	1120.015014648438	718.4771118164062	371.9621887207031	964.493408203125	1587.38623046875	182.9326019287109	1154.94921875	1622.143188476562	104.9477767944336	1124.072509765625	1618.7109375	201.2932586669922	983.7816772460938	1583.945434570312	40.13778305053711	1026.405151367188	907.6826782226562	-28.64229965209961	1016.487121582031	916.81103515625	309.3783569335938	1121.5791015625	944.2857055664062	268.1100769042969	1146.030883789062	936.43603515625	27.9337329864502	1045.97705078125	453.5739440917969	-17.58588027954102	1056.798461914062	592.5108642578125	-26.7292652130127	950.2599487304688	40.59248733520508	-8.729924201965332	995.8194580078125	239.7578582763672	-25.82567024230957	1154.889770507812	31.24381446838379	53.65634155273438	1084.589111328125	19.35385322570801	93.38118743896484	1075.354614257812	34.70866394042969	-18.85366058349609	915.3679809570312	34.49687576293945	57.58454513549805	1027.08203125	453.1976318359375	293.06494140625	1098.043212890625	709.7099609375	303.0132751464844	960.7554931640625	42.08110809326172	270.2919616699219	1027.836547851562	334.8436279296875	285.8381958007812	1153.597534179688	33.02450561523438	215.7393188476562	1097.221069335938	29.0185718536377	175.1509552001953	1061.730590820312	28.93803977966309	287.2984924316406	909.2658081054688	43.27878570556641	223.25634765625	1158.950439453125	724.88818359375	-64.08293914794922	nan	nan	nan	nan	nan	nan	
301	3	938.8743286132812	972.0618286132812	200.6036834716797	939.6571655273438	970.4946899414062	72.15543365478516	935.91015625	1022.783325195312	140.5878601074219	1155.754760742188	1209.196533203125	124.6472091674805	917.1123657226562	1143.40869140625	131.7737274169922	955.4182739257812	1391.370727539062	112.955207824707	1111.812866210938	1333.988403320312	119.1974105834961	907.5382690429688	1254.233642578125	185.2784118652344	947.641357421875	1352.781860351562	10.69339466094971	1033.751098632812	1370.220947265625	-44.71640396118164	1022.988647460938	1248.810424804688	-111.1666641235352	1051.170288085938	1044.315551757812	-115.278678894043	983.249755859375	1031.078857421875	-65.86846923828125	1144.339965820312	803.5288696289062	-51.38448715209961	1113.638061523438	791.3905639648438	-111.9330520629883	1070.018310546875	940.5810546875	-116.6224212646484	1149.620727539062	643.0634765625	-42.84895706176758	1110.287475585938	720.6053466796875	-104.8218154907227	1016.605102539062	1379.630981445312	276.5559387207031	1010.54541015625	1314.303100585938	343.0255737304688	1026.207275390625	1045.473754882812	373.702880859375	974.8619384765625	1038.971069335938	293.8716125488281	1133.44921875	820.0948486328125	310.2344665527344	1104.610229492188	802.1060791015625	379.3981628417969	1054.045043945312	977.9151611328125	377.9271850585938	1152.848999023438	646.560546875	314.4689331054688	1165.680297851562	718.6314697265625	321.5571899414062	1119.995727539062	718.4495849609375	372.0134887695312	964.5991821289062	1587.362426757812	182.9581909179688	1155.024291992188	1622.162841796875	105.0641860961914	1124.080688476562	1618.690307617188	201.34619140625	983.9163208007812	1583.954223632812	40.17422485351562	1026.497436523438	907.677978515625	-28.58926773071289	1016.52978515625	916.8026123046875	309.3912963867188	1121.620727539062	944.2825317382812	268.1415100097656	1146.115600585938	936.4407958984375	27.97584342956543	1046.023559570312	453.5679931640625	-17.57494163513184	1056.91650390625	592.5097045898438	-26.69856834411621	950.2626953125	40.59456634521484	-8.729620933532715	995.86669921875	239.7445068359375	-25.82194900512695	1154.890502929688	31.2429084777832	53.6562614440918	1084.586303710938	19.35430717468262	93.38500213623047	1075.353271484375	34.70866394042969	-18.85319709777832	915.3732299804688	34.50182342529297	57.58602905273438	1027.138305664062	453.180908203125	293.0752258300781	1098.146728515625	709.707763671875	302.9934387207031	960.7842407226562	42.06968307495117	270.2997131347656	1027.924438476562	334.7998352050781	285.831787109375	1153.594482421875	33.01652145385742	215.7401428222656	1097.226684570312	29.02247428894043	175.1513214111328	1061.731567382812	28.93886947631836	287.2959594726562	909.269287109375	43.28593063354492	223.2514495849609	1159.220947265625	725.0117797851562	-64.04563140869141	nan	nan	nan	nan	nan	nan	
